<svg xmlns="http://www.w3.org/2000/svg" style="display: none;">

    <symbol id="icon-user" viewBox="0 0 512 512">
      <path d="m392 370c70 24 105 45 105 62c0 0 0 54 0 54c0 0-241 0-241 0c0 0-241 0-241 0c0 0 0-54 0-54c0-17 35-38 105-62c32-12 54-24 65-36c12-12 18-28 18-48c0-8-4-16-12-25c-7-10-12-22-16-38c-1-4-2-7-5-9c-2-2-4-3-7-4c-2-1-4-4-7-9c-2-5-4-12-4-22c0-5 0-10 2-13c2-4 3-6 5-6c0 0 2-2 2-2c-3-17-5-32-6-45c-2-19 5-38 21-58c15-19 42-29 80-29c38 0 65 10 81 29c16 20 22 39 20 58c0 0-6 45-6 45c6 2 9 10 9 21c0 10-2 17-4 22c-3 5-5 8-7 9c-3 1-5 2-7 4c-3 2-4 5-5 9c-3 17-8 29-16 38c-8 9-12 17-12 25c0 20 6 36 18 48c12 12 34 24 65 36"/>
    </symbol>

    <symbol id="icon-calendar" viewBox="0 0 512 512">
      <path d="m435 77c15 0 27 5 37 15c9 10 14 22 14 36c0 0 0 307 0 307c0 14-5 26-14 36c-10 10-22 15-37 15c0 0-358 0-358 0c-14 0-26-5-36-15c-10-10-15-22-15-36c0 0 0-307 0-307c0-14 5-26 15-36c10-10 22-15 36-15c0 0 23 0 23 0c0 0 0 51 0 51c0 0 82 0 82 0c0 0 0-51 0-51c0 0 149 0 149 0c0 0 0 51 0 51c0 0 82 0 82 0c0 0 0-51 0-51c0 0 22 0 22 0m0 358c0 0 0-205 0-205c0 0-358 0-358 0c0 0 0 205 0 205c0 0 358 0 358 0m-276-409c0 0 0 87 0 87c0 0-36 0-36 0c0 0 0-87 0-87c0 0 36 0 36 0m230 0c0 0 0 87 0 87c0 0-36 0-36 0c0 0 0-87 0-87c0 0 36 0 36 0"/>
    </symbol>

    <symbol id="icon-comment" viewBox="0 0 512 512">
      <path d="m410 77c14 0 26 5 36 15c10 10 15 22 15 36c0 0 0 179 0 179c0 14-5 26-15 36c-10 10-22 15-36 15c0 0-103 0-103 0c0 0 0 77 0 77c0 0-102-77-102-77c0 0-103 0-103 0c-13 0-25-5-35-15c-11-10-16-22-16-36c0 0 0-179 0-179c0-14 5-26 16-36c10-10 22-15 35-15c0 0 308 0 308 0"/>
    </symbol>

    <symbol id="icon-folder" viewBox="0 0 512 512">
      <path d="m488 179c11 0 18 2 21 6c3 4 4 11 3 19c0 0-22 231-22 231c0 8-2 15-6 19c-3 5-10 7-21 7c0 0-413 0-413 0c-18 0-27-9-28-26c0 0-22-231-22-231c-1-8 0-15 3-19c3-4 10-6 21-6c0 0 464 0 464 0m-17-56c0 0 5 20 5 20c0 0-433 0-433 0c0 0 7-67 7-67c2-7 5-13 10-18c6-4 12-7 19-7c0 0 84 0 84 0c18 0 32 6 44 18c0 0 15 15 15 15c11 12 26 18 44 18c0 0 174 0 174 0c7 0 14 2 20 7c6 4 10 8 11 14"/>
    </symbol>

    <symbol id="icon-tag" viewBox="0 0 512 512">
      <path d="m493 10c13 36 11 70-4 102c-15 32-37 59-65 81c0 0 9 12 9 12c5 9 6 19 3 27c0 0-25 81-25 81c-4 11-10 18-18 24c0 0-238 168-238 168c-14 10-25 9-32-2c0 0-108-156-108-156c-4-6-6-13-5-20c2-7 5-13 11-17c0 0 238-168 238-168c9-6 18-9 27-9c0 0 81 0 81 0c11 0 19 5 25 13c0 0 14 21 14 21c58-44 77-93 59-147c-4-9-1-16 9-20c11-3 17 1 19 10m-110 240c13-11 19-25 17-41c0 0-16 8-16 8c-3 1-5 2-6 2c-7 0-11-3-15-9c-4-10-1-17 8-21c0 0 13-7 13-7c-17-11-32-11-47 0c-10 6-16 15-18 26c-2 12 1 22 7 32c7 8 15 14 27 16c11 2 21 0 30-6"/>
    </symbol>

    <symbol id="icon-pencil" viewBox="0 0 512 512">
      <path d="m424 87c11 11 19 22 24 33c5 11 8 19 8 24c0 0 0 9 0 9c0 0-129 129-129 129c0 0-149 147-149 147c0 0-122 27-122 27c0 0 26-123 26-123c0 0 148-148 148-148c0 0 129-129 129-129c19-4 40 6 65 31m-253 328c0 0 12-13 12-13c0-15-9-31-26-48c-8-7-16-13-23-18c-8-4-14-6-18-6c0 0-7-1-7-1c0 0-12 12-12 12c0 0-9 41-9 41c10 5 17 11 24 17c8 9 14 17 18 25c0 0 41-9 41-9"/>
    </symbol>

    <symbol id="icon-call-phone" viewBox="0 0 512 512">
      <path d="M457 158c0-5-1-12-3-20-2-9-4-15-6-20-4-10-15-20-35-30-17-10-35-15-53-15-5 0-10 0-15 1-5 1-10 2-16 4-6 1-11 3-14 4-3 1-8 3-16 6-7 3-12 4-14 5-18 7-35 14-50 24-24 15-49 35-75 61-26 26-47 51-62 76-9 14-17 31-23 50-1 1-3 6-6 14-2 7-4 13-5 16-1 3-3 7-5 13-1 6-2 12-3 17-1 4-1 9-1 15 0 17 5 35 14 53 11 19 21 31 31 35 4 2 11 4 19 6 9 1 15 2 20 2 3 0 5 0 6 0 4-2 9-9 16-22 2-4 5-9 8-16 4-6 7-12 10-18 3-5 6-10 9-15 1-1 2-3 5-7 3-4 5-8 6-10 1-3 2-6 2-8 0-4-3-9-8-15-5-5-11-11-18-15-6-5-12-10-17-16-6-5-9-9-9-13 0-1 1-4 2-6 1-3 2-5 2-6 1-1 2-4 4-7 2-3 3-5 4-5 14-26 31-49 49-67 19-19 41-36 67-50 1 0 3-1 6-3 3-2 5-4 7-4 1-1 3-2 6-3 2-1 4-1 6-1 3 0 8 2 13 8 5 5 11 11 15 18 5 6 10 12 16 17 6 6 10 8 14 8 3 0 6 0 8-2 3-1 7-3 11-6 4-2 6-4 7-5 4-3 10-6 15-9 5-3 11-6 18-10 7-3 12-6 16-8 13-7 20-12 21-15 1-2 1-4 1-6z"/>
    </symbol>

</svg>
